<?xml version="1.0" encoding="iso-8859-1"?>
<!-- Generator: Adobe Illustrator 19.0.0, SVG Export Plug-In . SVG Version: 6.00 Build 0)  -->
<svg fill="#993333" version="1.1" id="Layer_1" xmlns="http://www.w3.org/2000/svg" xmlns:xlink="http://www.w3.org/1999/xlink" x="0px" y="0px"
	 viewBox="0 0 512 512" style="enable-background:new 0 0 512 512;" xml:space="preserve">
<g>
	<g>
		<path d="M491.195,2.254c-3.152,0.341-77.402,8.795-162.593,52.789l128.356,128.354c43.994-85.19,52.446-159.441,52.787-162.592
			L512,0.001L491.195,2.254z"/>
	</g>
</g>
<g>
	<g>
		<path d="M439.849,213.906L298.094,72.151c-33.882,20.6-64.228,44.697-90.633,71.952c-25.903-1.606-100.803,4.766-188.723,112.085
			L0,279.059l112.763,17.139c-4.055,11.113-7.698,22.488-10.964,34.092L3.273,376.233l14.229,30.516l96.171-44.844l6.307,6.307
			L17.705,470.485l23.81,23.809L143.788,392.02l6.307,6.308l-44.844,96.171l30.516,14.229l45.942-98.525
			c11.605-3.267,22.979-6.91,34.094-10.966l17.138,112.763l22.871-18.737c107.316-87.919,113.69-162.817,112.084-188.723
			C395.152,278.136,419.249,247.788,439.849,213.906z M254.572,301.078c-6.017,6.017-13.922,9.026-21.826,9.026
			s-15.809-3.009-21.825-9.026c-5.83-5.83-9.041-13.581-9.041-21.825s3.211-15.995,9.041-21.825
			c12.035-12.035,31.616-12.035,43.65,0c5.83,5.83,9.041,13.581,9.041,21.825S260.402,295.249,254.572,301.078z M329.651,226.019
			c-6.019,6.019-13.928,9.03-21.835,9.03c-7.907,0-15.815-3.01-21.835-9.03c-12.04-12.041-12.04-31.631,0-43.67
			c12.041-12.04,31.631-12.039,43.67,0C341.692,194.389,341.692,213.979,329.651,226.019z"/>
	</g>
</g>
<g>
</g>
<g>
</g>
<g>
</g>
<g>
</g>
<g>
</g>
<g>
</g>
<g>
</g>
<g>
</g>
<g>
</g>
<g>
</g>
<g>
</g>
<g>
</g>
<g>
</g>
<g>
</g>
<g>
</g>
</svg>
